<?xml version="1.0" encoding="utf-8"?>
<!-- Generator: Adobe Illustrator 23.0.1, SVG Export Plug-In . SVG Version: 6.00 Build 0)  -->
<svg version="1.2" baseProfile="tiny" id="Layer_1" xmlns="http://www.w3.org/2000/svg" xmlns:xlink="http://www.w3.org/1999/xlink"
	 x="0px" y="0px" viewBox="0 0 1222 299" xml:space="preserve">
<g>
	<path fill="#231F20" d="M76.2,156.2c-26.3-2.7-39.5-4.8-39.5-13.5c0-7.6,13.2-11.8,30.5-11.8c17.4,0,32.4,3,33.9,14.4h11.2
		c-0.7-15.9-23-20.8-45-20.8c-20.9,0-42.6,4.8-42.6,19.4c0,10.8,13.8,15.3,39.5,17.8c19.6,2,39.3,3.2,39.3,13.4
		c0,10.6-16.8,13.3-33,13.3c-20.7,0-35.8-3.4-37.8-17.4H21.4c1.7,18,21.6,23.8,49,23.8c21,0,45-4.5,45-20.9
		C115.4,161.1,95.8,158.2,76.2,156.2"/>
	<path fill="#231F20" d="M149.3,166.4l24-33.3l23.7,33.3H149.3z M167,126.2l-49,66.9h12.1l14.7-20.3h56.8l14.4,20.3h13l-49-66.9H167
		z"/>
	<polygon fill="#231F20" points="238,193.1 249.2,193.1 249.2,161.6 315.4,161.6 315.4,155.3 249.2,155.3 249.2,132.6 318.9,132.6 
		318.9,126.2 238,126.2 	"/>
	<polygon fill="#231F20" points="343.4,161.6 415.4,161.6 415.4,155.2 343.4,155.2 343.4,132.6 418.1,132.6 418.1,126.2 
		332.2,126.2 332.2,193.1 419.3,193.1 419.3,186.7 343.4,186.7 	"/>
	<polygon fill="#231F20" points="728.1,193.1 739.3,193.1 739.3,161.6 805.5,161.6 805.5,155.3 739.3,155.3 739.3,132.6 809,132.6 
		809,126.2 728.1,126.2 	"/>
	<polygon fill="#231F20" points="831.7,126.2 820.5,126.2 820.5,193.1 900.1,193.1 900.1,186.7 831.7,186.7 	"/>
	<polygon fill="#231F20" points="923.1,161.6 995.1,161.6 995.1,155.2 923.1,155.2 923.1,132.6 997.8,132.6 997.8,126.2 
		911.9,126.2 911.9,193.1 999,193.1 999,186.7 923.1,186.7 	"/>
	<polygon fill="#231F20" points="1026.7,161.6 1098.6,161.6 1098.6,155.2 1026.7,155.2 1026.7,132.6 1101.3,132.6 1101.3,126.2 
		1015.5,126.2 1015.5,193.1 1102.5,193.1 1102.5,186.7 1026.7,186.7 	"/>
	<polygon fill="#231F20" points="1106.9,126.2 1106.9,132.6 1149.2,132.6 1149.2,193.1 1160.4,193.1 1160.4,132.6 1202.8,132.6 
		1202.8,126.2 	"/>
	<path fill="#1B4C86" d="M666.7,183.8c-17.2,37.2-48.9,65.1-91.8,80.6l-1.5,0.6l-1.5-0.6c-42.8-15.6-74.5-43.4-91.7-80.6
		c-22.4-48.7-18.7-130.8-18.5-134.2l0.2-4.3h4.3c64.5,0,104.5-24.7,104.8-25l2.4-1.5l2.4,1.5c0.4,0.3,40.5,25,105,25h4.3l0.2,4.3
		C685.4,53.1,689.1,135.1,666.7,183.8 M573.3,11c0,0-45,28.5-119.2,28.5c0,0-4.6,93.2,20.1,146.8c17.3,37.3,49.2,68.9,99,87
		c50-18.1,81.9-49.7,99.2-87c24.7-53.6,20.2-146.8,20.2-146.8C618.5,39.5,573.3,11,573.3,11"/>
	<path fill="#1B4C86" d="M650.9,87.8h-44.8c-4.9,0-6.2,0.5-6.2,0.6c-0.5,0.3-0.9,1.4-0.9,3.6v24.8h49.9c-0.7,5.6-1.5,11.3-2.6,16.9
		H599v74.2c-8.3,5.5-15.4,10.3-26.1,14.2v-38.6c-7.3,3.4-19.2,5.1-31.6,5.1h-21.5c-4.5-5.2-8.5-10.8-11.8-16.6l36.6,0.2
		c13.6,0,13.6-6.4,13.6-9.4c0-1.8-1-3.9-3.1-6c-1.3-1.4-4.2-4-10.6-8.3l-27.2-18.6c-11.4-7.9-17.2-17.3-17.2-27.8
		c0-14,7.8-30.6,44.8-30.6h106.1C651.1,75.5,651.1,81.1,650.9,87.8 M573.3,29.4c-9.5,5.4-46.4,24-102.9,24.9
		c-0.4,17.5-0.8,85.2,17.9,125.8c15.9,34.5,45.3,60.5,85,75.4c39.8-14.8,69.2-40.9,85.2-75.4c18.7-40.6,18.3-108.3,17.9-125.8
		C619.9,53.4,582.9,34.8,573.3,29.4"/>
	<path fill="#1B4C86" d="M528.6,97.1c0,2.1,0.9,4.2,2.9,6.3c2,2.1,5.5,5,10.6,8.5l29.4,18.2c0.5,0.3,0.9,0.6,1.4,0.9V87.8l-30.7,0
		C528.6,87.8,528.6,94.1,528.6,97.1"/>
</g>
</svg>
